<?xml version="1.0" encoding="UTF-8" standalone="no"?>
<svg width="200px" height="200px" viewBox="0 0 200 200" version="1.1" xmlns="http://www.w3.org/2000/svg" xmlns:xlink="http://www.w3.org/1999/xlink">
    <!-- Generator: Sketch 41 (35326) - http://www.bohemiancoding.com/sketch -->
    <title>Corner</title>
    <desc>Created with Sketch.</desc>
    <defs></defs>
    <g id="Page-1" stroke="none" stroke-width="1" fill="none" fill-rule="evenodd">
        <g id="Corner">
            <polygon id="Path-2" fill="#FFBB00" points="200 0 0 0 42 42"></polygon>
            <polygon id="Path-3" fill="#00BCFF" points="42 42 120 120 200 0"></polygon>
            <polygon id="Path-4" fill="#88E401" points="120 120 200 200 200 0"></polygon>
            <path d="M100.81001,35.9479024 C102.377702,37.0519535 103.401894,38.875908 103.401894,40.9390752 C103.401894,44.3082737 100.670619,47.0395487 97.3014204,47.0395487 C93.9322219,47.0395487 91.2009469,44.3082737 91.2009469,40.9390752 C91.2009469,38.875908 92.2251382,37.0519535 93.7928303,35.9479024 C93.5533181,36.4521335 93.4193009,37.0161882 93.4193009,37.6115443 C93.4193009,39.7555796 95.157385,41.4936637 97.3014204,41.4936637 C99.4454557,41.4936637 101.18354,39.7555796 101.18354,37.6115443 C101.18354,37.0161882 101.049523,36.4521335 100.81001,35.9479024 Z M98.4461523,18.0070548 C98.5889245,18.2855681 99.4407894,20.0140966 99.9761769,22.608466 C100.562024,25.4473515 100.596432,28.4871041 100.596432,28.4871041 C100.596432,28.4871041 103.17118,28.1633036 105.868601,28.7965061 C108.566023,29.4297085 111.14077,30.9623201 111.14077,30.9623201 C111.14077,30.9623201 112.691408,26.9452076 112.691408,23.22727 C112.691408,19.9564096 111.491273,16.6934646 111.202643,15.9560306 C108.68947,15.696856 106.729425,13.5729727 106.729425,10.9912965 C106.729425,8.23467954 108.964104,6 111.720721,6 C114.477338,6 116.712018,8.23467954 116.712018,10.9912965 C116.712018,12.7695181 115.782122,14.330551 114.382079,15.2146466 C114.803785,16.2828674 116.03685,19.7198345 116.102812,23.536672 C116.182455,28.1451998 114.552174,32.8187321 114.552174,32.8187321 C114.552174,32.8187321 117.268592,34.7917197 118.89396,37.1503601 C120.519328,39.5090006 121.374981,42.7195962 121.374981,42.7195962 L124.875006,42.6225408 C125.424363,41.8368189 128.328352,37.7652554 131.662269,34.6287255 C135.368142,31.142262 135.937728,30.365236 141.044815,27.4383619 C146.151903,24.5114877 150.11461,22.7489943 155.118635,21.1858717 C160.12266,19.6227492 163.562927,19.3101247 165.439436,19.3101247 C167.315945,19.3101247 169.889053,19.29885 172.945473,21.1858717 C176.001892,23.0728935 176.072988,25.8752393 176.072988,25.8752393 L176.38574,28.6888599 C176.38574,28.6888599 172.618391,28.4600536 168.879703,28.6888599 C165.141014,28.9176662 161.060914,29.6267334 161.060914,29.6267334 C161.060914,29.6267334 155.959151,30.2623639 151.365616,32.1277294 C146.772081,33.993095 145.948689,34.5648573 141.044815,37.7549706 C136.140942,40.9450838 131.662269,44.9453342 131.662269,44.9453342 L126.658244,45.5705832 C126.658244,45.5705832 124.536708,54.9769709 118.526704,65.5785516 C112.5167,76.1801323 105.391139,83.085524 105.391139,83.085524 L108.205903,88.7127651 C108.205903,88.7127651 114.656855,82.3938206 120.403213,73.0815398 C126.149571,63.7692589 128.847505,55.2619429 128.847505,55.2619429 L132.287772,58.7008125 L136.666294,61.2018085 C136.666294,61.2018085 133.526074,70.4311365 128.847505,77.7709074 C124.168936,85.1106782 114.148182,96.5283777 114.148182,96.5283777 L121.341468,101.53037 C121.341468,101.53037 132.46777,88.4641689 135.415287,83.710773 C138.362805,78.957377 144.797834,63.7028046 144.797834,63.7028046 L148.863604,64.6406781 L153.867629,65.2659271 C153.867629,65.2659271 147.998954,79.2079011 143.546828,86.837018 C139.094701,94.466135 129.78576,106.532362 129.78576,106.532362 L137.604548,108.408109 C137.604548,108.408109 148.111952,94.5031564 151.991119,87.462267 C155.870286,80.4213777 161.373666,65.2659271 161.373666,65.2659271 L167.003194,64.6406781 L172.31997,63.7028046 C172.31997,63.7028046 175.199218,68.1891238 176.38574,73.0815398 C177.572262,77.9739557 177.581879,78.7507997 177.323995,84.336022 C177.06611,89.9212443 175.447485,93.4021327 175.447485,93.4021327 L195.463584,97.1536267 L171.381715,100.279872 C171.381715,100.279872 169.194013,103.033804 166.37769,104.969239 C163.561368,106.904675 161.747259,108.829215 156.369641,110.596481 C150.992023,112.363746 149.961502,112.388954 143.546828,112.472228 C140.782482,112.508114 136.887921,112.523965 131.036766,110.596481 C125.185611,108.668996 120.403213,105.594488 120.403213,105.594488 C120.403213,105.594488 115.701261,102.770193 111.958922,99.0293738 C108.216583,95.2885549 105.391139,90.5885121 105.391139,90.5885121 C105.391139,90.5885121 103.017282,86.6771742 101.638121,82.4602749 C100.258959,78.2433757 100.074363,74.3320378 100.074363,74.3320378 L100.643208,73.6050759 C98.5769556,73.3738334 91.0849175,72.3308065 86.950818,69.0187664 C82.1236049,65.1514375 81.0533495,63.1199987 79.5077558,56.9520883 C77.962162,50.7841779 80.4381385,43.0289982 80.4381385,43.0289982 C80.4381385,43.0289982 83.209909,37.233773 87.2609456,33.7469381 C91.3119821,30.2601033 96.5647733,29.1059081 96.5647733,29.1059081 C96.5647733,29.1059081 96.9338666,25.9669879 96.5647733,23.536672 C96.291565,21.7377159 95.5731998,20.0590835 95.218397,19.3083248 C95.1734325,19.3095217 95.1283198,19.3101239 95.0830664,19.3101239 C92.3264495,19.3101239 90.0917699,17.0754444 90.0917699,14.3188274 C90.0917699,11.5622105 92.3264495,9.32753097 95.0830664,9.32753097 C97.8396833,9.32753097 100.074363,11.5622105 100.074363,14.3188274 C100.074363,15.7798509 99.4466272,17.0942589 98.4461523,18.0070548 Z M166.849981,61.1437533 C184.526238,57.3865488 197.513452,48.0260653 195.857735,40.2365282 C194.202018,32.4469911 178.530356,29.1781397 160.854099,32.9353441 C143.177841,36.6925486 130.190628,46.0530321 131.846345,53.8425692 C133.502062,61.6321063 149.173724,64.9009577 166.849981,61.1437533 Z M169.565591,68.1139115 C169.565591,68.1139115 171.053779,71.6351252 171.732355,73.4806217 C172.410932,75.3261183 173.280044,78.2159543 173.280044,78.2159543 C173.280044,78.2159543 170.294332,85.9694559 166.470213,93.0533296 C162.646095,100.137203 158.112694,106.312261 158.112694,106.312261 C158.112694,106.312261 154.573675,107.463238 152.850552,107.890705 C151.127429,108.318172 146.659796,109.15346 146.659796,109.15346 C146.659796,109.15346 155.702418,96.1260487 160.588996,87.3709305 C165.475574,78.6158123 169.565591,68.1139115 169.565591,68.1139115 Z" id="Combined-Shape" fill="#333333"></path>
        </g>
    </g>
</svg>