<?xml version="1.0" encoding="UTF-8" standalone="no"?>
<svg width="200px" height="200px" viewBox="0 0 200 200" version="1.1" xmlns="http://www.w3.org/2000/svg" xmlns:xlink="http://www.w3.org/1999/xlink">
    <!-- Generator: Sketch 41 (35326) - http://www.bohemiancoding.com/sketch -->
    <title>Logo</title>
    <desc>Created with Sketch.</desc>
    <defs>
        <rect id="path-1" x="0" y="0" width="200" height="200"></rect>
        <mask id="mask-2" maskContentUnits="userSpaceOnUse" maskUnits="objectBoundingBox" x="0" y="0" width="200" height="200" fill="white">
            <use xlink:href="#path-1"></use>
        </mask>
    </defs>
    <g id="Page-1" stroke="none" stroke-width="1" fill="none" fill-rule="evenodd">
        <g id="Logo">
            <use id="Rectangle" stroke="#979797" mask="url(#mask-2)" stroke-width="2" fill="#D8D8D8" xlink:href="#path-1"></use>
            <polygon id="Path-2" fill="#FFBB00" points="200 0 0 0 0 53"></polygon>
            <polygon id="Path-3" fill="#00BCFF" points="-8.80129303e-14 53 -1.13686838e-13 200 67 200 200 0"></polygon>
            <polygon id="Path-4" fill="#88E401" points="67 200 200 200 200 0"></polygon>
            <path d="M46.6897588,60.5939299 C48.9676019,62.2010518 50.4557432,64.8561073 50.4557432,67.859375 C50.4557432,72.7637786 46.4872239,76.7395833 41.5918074,76.7395833 C36.6963908,76.7395833 32.7278716,72.7637786 32.7278716,67.859375 C32.7278716,64.8561073 34.2160128,62.2010518 36.493856,60.5939299 C36.1458468,61.3279184 35.951121,62.1489897 35.951121,63.015625 C35.951121,66.1366091 38.4765423,68.6666667 41.5918074,68.6666667 C44.7070724,68.6666667 47.2324938,66.1366091 47.2324938,63.015625 C47.2324938,62.1489897 47.037768,61.3279184 46.6897588,60.5939299 Z M43.2550931,34.4781759 C43.4625398,34.8835962 44.7002922,37.3997441 45.4782057,41.176261 C46.3294365,45.3087098 46.3794312,49.7335526 46.3794312,49.7335526 C46.3794312,49.7335526 50.1205174,49.2622096 54.0398478,50.1839364 C57.9591781,51.1056632 61.7002644,53.3366228 61.7002644,53.3366228 C61.7002644,53.3366228 63.9533281,47.4890774 63.9533281,42.0770285 C63.9533281,37.3157715 62.2095416,32.5660367 61.7901655,31.4925843 C58.1385455,31.1153146 55.2906172,28.023665 55.2906172,24.265625 C55.2906172,20.2529311 58.5375875,17 62.5429283,17 C66.5482691,17 69.7952394,20.2529311 69.7952394,24.265625 C69.7952394,26.8541092 68.444109,29.1264406 66.4098589,30.413382 C67.0225931,31.9683473 68.8142262,36.9713989 68.9100682,42.5274123 C69.0257899,49.2358567 66.6570045,56.0389254 66.6570045,56.0389254 C66.6570045,56.0389254 70.603937,58.9109224 72.9655829,62.3442982 C75.3272288,65.7776741 76.5704848,70.4512061 76.5704848,70.4512061 L81.6559923,70.3099266 C82.4542024,69.1661835 86.6736733,63.239376 91.5178266,58.6736584 C96.9024281,53.5985568 97.7300318,52.467472 105.150586,48.2069417 C112.571141,43.9464114 118.328921,41.3808222 125.599726,39.105449 C132.870531,36.8300758 137.869209,36.3750012 140.595761,36.3750012 C143.322313,36.3750012 147.061018,36.3585891 151.501969,39.105449 C155.942921,41.8523089 156.046222,45.9315685 156.046222,45.9315685 L156.500648,50.0272403 C156.500648,50.0272403 151.026722,49.6941763 145.59444,50.0272403 C140.162158,50.3603042 134.233807,51.3924642 134.233807,51.3924642 C134.233807,51.3924642 126.820989,52.3177253 120.146622,55.0330613 C113.472255,57.7483973 112.275872,58.580688 105.150586,63.2244048 C98.0253002,67.8681215 91.5178266,73.6911214 91.5178266,73.6911214 L84.2470215,74.6012707 C84.2470215,74.6012707 81.164447,88.2937624 72.4319631,103.726047 C63.6994791,119.158333 53.3460996,129.210227 53.3460996,129.210227 L57.4359275,137.401571 C57.4359275,137.401571 66.8091061,128.203343 75.158515,114.647839 C83.5079239,101.092334 87.4279987,88.7085845 87.4279987,88.7085845 L92.4266773,93.7144055 L98.7886318,97.3550026 C98.7886318,97.3550026 94.2259189,110.789756 87.4279987,121.473958 C80.6300785,132.158161 66.0700086,148.778437 66.0700086,148.778437 L76.521791,156.059631 C76.521791,156.059631 92.6882134,137.039699 96.9709305,130.120376 C101.253648,123.201053 110.60369,100.9956 110.60369,100.9956 L116.511219,102.360824 L123.782024,103.270973 C123.782024,103.270973 115.254891,123.565731 108.785989,134.671123 C102.317087,145.776515 88.7912747,163.340825 88.7912747,163.340825 L100.151908,166.071273 C100.151908,166.071273 115.419076,145.830405 121.055473,135.581272 C126.691869,125.332139 134.688232,103.270973 134.688232,103.270973 L142.867888,102.360824 L150.593118,100.9956 C150.593118,100.9956 154.776641,107.52615 156.500648,114.647839 C158.224654,121.769528 158.238627,122.900347 157.863924,131.030526 C157.48922,139.160704 155.137372,144.22769 155.137372,144.22769 L184.220592,149.688586 L149.229843,154.239332 C149.229843,154.239332 146.05113,158.248118 141.959037,161.065452 C137.866944,163.882786 135.23106,166.684259 127.417427,169.256795 C119.603794,171.829331 118.106456,171.866025 108.785989,171.987243 C104.769418,172.039481 99.1106538,172.062556 90.608976,169.256795 C82.1072982,166.451035 75.158515,161.975601 75.158515,161.975601 C75.158515,161.975601 68.326618,157.86439 62.8890313,152.419034 C57.4514447,146.973677 53.3460996,140.132018 53.3460996,140.132018 C53.3460996,140.132018 49.8969061,134.438445 47.8929957,128.300078 C45.8890853,122.161711 45.6208691,116.468137 45.6208691,116.468137 L46.4473958,115.409929 C43.4451491,115.073319 32.5592818,113.555027 26.5524706,108.733827 C19.5385712,103.104315 17.9834993,100.147233 15.7377648,91.1688596 C13.4920303,82.1904861 17.089603,70.9015899 17.089603,70.9015899 C17.089603,70.9015899 21.1169618,62.4657188 27.0030833,57.3900768 C32.8892048,52.3144347 40.5214655,50.6343202 40.5214655,50.6343202 C40.5214655,50.6343202 41.0577549,46.0651232 40.5214655,42.5274123 C40.1244962,39.9087458 39.0807176,37.4652297 38.5651922,36.3723811 C38.4998592,36.3741234 38.4343108,36.375 38.368558,36.375 C34.3632172,36.375 31.1162469,33.1220689 31.1162469,29.109375 C31.1162469,25.0966811 34.3632172,21.84375 38.368558,21.84375 C42.3738988,21.84375 45.6208691,25.0966811 45.6208691,29.109375 C45.6208691,31.2361268 44.7087745,33.1494565 43.2550931,34.4781759 Z M142.653268,97.2704939 C168.336719,91.8113079 187.203449,78.1937615 184.79329,66.8548527 C182.38313,55.5159439 159.60876,50.7494868 133.925309,56.2086728 C108.241858,61.6678587 89.375128,75.2854051 91.7852874,86.6243139 C94.1954469,97.9632228 116.969818,102.72968 142.653268,97.2704939 Z M146.59103,107.416667 C146.59103,107.416667 148.753354,112.542353 149.73932,115.228766 C150.725286,117.915179 151.988099,122.121795 151.988099,122.121795 C151.988099,122.121795 147.649884,133.408248 142.093473,143.719952 C136.537062,154.031656 129.950068,163.020433 129.950068,163.020433 C129.950068,163.020433 124.807903,164.695863 122.304221,165.318109 C119.800538,165.940355 113.309106,167.15625 113.309106,167.15625 C113.309106,167.15625 126.447958,148.192783 133.548114,135.448317 C140.648269,122.703852 146.59103,107.416667 146.59103,107.416667 Z" id="Combined-Shape" fill="#333333"></path>
        </g>
    </g>
</svg>